<svg xmlns="http://www.w3.org/2000/svg" viewBox="0 0 800 400"><text class="left axis" x="20" y="170" transform="rotate(-90 20 170)">Self-assessed relationship quality (0 – 4)</text><text class="bottom axis" x="430" y="380">Age difference</text><line class="axis" x1="60" y1="0" x2="60" y2="340"/><line class="axis" x1="60" y1="340" x2="800" y2="340"/><circle class="dot" r="7.527468918911845" cx="282.22222222222223" cy="20"/><circle class="dot" r="15.796644753902354" cx="126.66666666666667" cy="20"/><circle class="dot" r="20" cx="95.55555555555554" cy="20"/><circle class="dot" r="10.805335458383416" cx="80" cy="95"/><circle class="dot" r="9.15800280898815" cx="204.44444444444446" cy="20"/><circle class="dot" r="14.704393979861104" cx="126.66666666666667" cy="95"/><circle class="dot" r="9.15800280898815" cx="188.88888888888889" cy="95"/><circle class="dot" r="7.527468918911845" cx="251.1111111111111" cy="20"/><circle class="dot" r="13.930004681646913" cx="142.22222222222223" cy="20"/><circle class="dot" r="16.984348076074735" cx="111.11111111111111" cy="20"/><circle class="dot" r="18.401389223727733" cx="80" cy="20"/><circle class="dot" r="10.805335458383416" cx="157.77777777777777" cy="95"/><circle class="dot" r="8.541597091936994" cx="235.55555555555554" cy="20"/><circle class="dot" r="17.785240825134036" cx="95.55555555555554" cy="95"/><circle class="dot" r="4.386000936329383" cx="328.8888888888889" cy="20"/><circle class="dot" r="11.780264397464796" cx="173.33333333333334" cy="95"/><circle class="dot" r="4.386000936329383" cx="484.4444444444444" cy="20"/><circle class="dot" r="15.619779927702561" cx="111.11111111111111" cy="95"/><circle class="dot" r="3.7466739123000217" cx="406.6666666666667" cy="20"/><circle class="dot" r="8.541597091936994" cx="251.1111111111111" cy="95"/><circle class="dot" r="9.451732946979302" cx="204.44444444444446" cy="95"/><circle class="dot" r="10.284519639691913" cx="188.88888888888889" cy="20"/><circle class="dot" r="12.89869004664442" cx="173.33333333333334" cy="20"/><circle class="dot" r="2.988313947662534" cx="468.8888888888889" cy="20"/><circle class="dot" r="6.362628831654452" cx="297.77777777777777" cy="20"/><circle class="dot" r="12.89869004664442" cx="142.22222222222223" cy="95"/><circle class="dot" r="13.111258599638287" cx="157.77777777777777" cy="20"/><circle class="dot" r="7.159196521765861" cx="142.22222222222223" cy="170"/><circle class="dot" r="4.949259351681265" cx="313.33333333333337" cy="95"/><circle class="dot" r="8.216847782911296" cx="235.55555555555554" cy="95"/><circle class="dot" r="8.854940954109622" cx="220" cy="20"/><circle class="dot" r="2.988313947662534" cx="360" cy="95"/><circle class="dot" r="6.772001872658766" cx="266.6666666666667" cy="95"/><circle class="dot" r="2" cx="500" cy="95"/><circle class="dot" r="3.7466739123000217" cx="360" cy="20"/><circle class="dot" r="7.159196521765861" cx="173.33333333333334" cy="170"/><circle class="dot" r="3.7466739123000217" cx="391.1111111111111" cy="20"/><circle class="dot" r="2" cx="157.77777777777777" cy="320"/><circle class="dot" r="8.216847782911296" cx="126.66666666666667" cy="170"/><circle class="dot" r="7.879348760929427" cx="188.88888888888889" cy="170"/><circle class="dot" r="4.949259351681265" cx="313.33333333333337" cy="20"/><circle class="dot" r="2.988313947662534" cx="484.4444444444444" cy="170"/><circle class="dot" r="2.988313947662534" cx="375.55555555555554" cy="170"/><circle class="dot" r="6.362628831654452" cx="80" cy="170"/><circle class="dot" r="3.7466739123000217" cx="328.8888888888889" cy="170"/><circle class="dot" r="6.772001872658766" cx="220" cy="95"/><circle class="dot" r="5.926764169165423" cx="266.6666666666667" cy="20"/><circle class="dot" r="6.772001872658766" cx="157.77777777777777" cy="170"/><circle class="dot" r="6.362628831654452" cx="282.22222222222223" cy="95"/><circle class="dot" r="3.7466739123000217" cx="235.55555555555554" cy="170"/><circle class="dot" r="2" cx="437.7777777777777" cy="95"/><circle class="dot" r="2" cx="235.55555555555554" cy="320"/><circle class="dot" r="5.458483883480499" cx="251.1111111111111" cy="170"/><circle class="dot" r="7.879348760929427" cx="95.55555555555554" cy="170"/><circle class="dot" r="7.159196521765861" cx="111.11111111111111" cy="170"/><circle class="dot" r="2" cx="531.1111111111111" cy="20"/><circle class="dot" r="2.988313947662534" cx="453.3333333333333" cy="170"/><circle class="dot" r="5.458483883480499" cx="282.22222222222223" cy="170"/><circle class="dot" r="2" cx="624.4444444444445" cy="20"/><circle class="dot" r="3.7466739123000217" cx="328.8888888888889" cy="95"/><circle class="dot" r="4.949259351681265" cx="297.77777777777777" cy="95"/><circle class="dot" r="2.988313947662534" cx="375.55555555555554" cy="20"/><circle class="dot" r="2" cx="577.7777777777778" cy="20"/><circle class="dot" r="2" cx="111.11111111111111" cy="245"/><circle class="dot" r="2" cx="142.22222222222223" cy="245"/><circle class="dot" r="2.988313947662534" cx="391.1111111111111" cy="95"/><circle class="dot" r="3.7466739123000217" cx="437.7777777777777" cy="20"/><circle class="dot" r="4.949259351681265" cx="344.44444444444446" cy="20"/><circle class="dot" r="2" cx="453.3333333333333" cy="95"/><circle class="dot" r="2.988313947662534" cx="546.6666666666666" cy="20"/><circle class="dot" r="4.949259351681265" cx="204.44444444444446" cy="170"/><circle class="dot" r="2" cx="577.7777777777778" cy="95"/><circle class="dot" r="2" cx="624.4444444444445" cy="95"/><circle class="dot" r="2" cx="717.7777777777777" cy="95"/><circle class="dot" r="2.988313947662534" cx="220" cy="170"/><circle class="dot" r="2.988313947662534" cx="344.44444444444446" cy="170"/><circle class="dot" r="2" cx="266.6666666666667" cy="170"/><circle class="dot" r="2" cx="313.33333333333337" cy="170"/><circle class="dot" r="2" cx="515.5555555555555" cy="95"/><circle class="dot" r="2" cx="235.55555555555554" cy="245"/><circle class="dot" r="2" cx="360" cy="170"/><circle class="dot" r="2.988313947662534" cx="173.33333333333334" cy="245"/><circle class="dot" r="2" cx="562.2222222222223" cy="95"/><circle class="dot" r="2" cx="422.2222222222222" cy="95"/><circle class="dot" r="2" cx="80" cy="245"/><circle class="dot" r="2" cx="780" cy="20"/><circle class="dot" r="2.988313947662534" cx="313.33333333333337" cy="245"/><circle class="dot" r="2" cx="297.77777777777777" cy="170"/><circle class="dot" r="2" cx="655.5555555555554" cy="95"/><circle class="dot" r="2" cx="500" cy="20"/><circle class="dot" r="2" cx="344.44444444444446" cy="95"/><circle class="dot" r="2" cx="344.44444444444446" cy="245"/><circle class="dot" r="2" cx="391.1111111111111" cy="170"/><circle class="dot" r="2" cx="422.2222222222222" cy="20"/><circle class="dot" r="2" cx="95.55555555555554" cy="245"/><text class="x scale-label" y="340" x="80">0.00</text><text class="x scale-label" y="340" x="180">6.43</text><text class="x scale-label" y="340" x="280">12.86</text><text class="x scale-label" y="340" x="380">19.29</text><text class="x scale-label" y="340" x="480">25.71</text><text class="x scale-label" y="340" x="580">32.14</text><text class="x scale-label" y="340" x="680">38.57</text><text class="y scale-label" x="60" y="320" transform="rotate(-90 60 320)">0.00</text><text class="y scale-label" x="60" y="260" transform="rotate(-90 60 260)">0.80</text><text class="y scale-label" x="60" y="200" transform="rotate(-90 60 200)">1.60</text><text class="y scale-label" x="60" y="140" transform="rotate(-90 60 140)">2.40</text><text class="y scale-label" x="60" y="80" transform="rotate(-90 60 79.99999999999999)">3.20</text></svg>